<svg width="32" height="33" viewBox="0 0 32 33" fill="none" xmlns="http://www.w3.org/2000/svg">
<path d="M12.008 6.00728L13.8023 3.42882C13.9892 3.16017 14.2958 3 14.6231 3H17.3774C17.7035 3 18.0091 3.15898 18.1963 3.426L19.9729 5.96043M12.008 6.00728C11.5456 6.66708 10.7768 6.99038 9.96091 6.93274M12.008 6.00728C11.5433 6.6655 10.7768 6.99306 9.96091 6.93274M9.96091 6.93274L6.79178 6.73378C6.47093 6.71364 6.15997 6.84898 5.95605 7.0975L4.21147 9.22373C3.99527 9.48722 3.92816 9.8427 4.03343 10.1669L4.9642 13.0334M4.9642 13.0334C5.08276 13.4178 5.09794 13.8297 5.01308 14.2187M4.9642 13.0334C5.08445 13.4171 5.09906 13.8282 5.01252 14.2227M5.01308 14.2187C4.92711 14.6031 4.7428 14.966 4.46913 15.2599M5.01308 14.2187L5.01252 14.2227M4.46913 15.2599L2.36575 17.5221C2.13735 17.7678 2.04732 18.1116 2.126 18.4376L2.74659 21.0093C2.82502 21.3343 3.06066 21.5986 3.37456 21.7137L6.26451 22.7729C6.64438 22.9199 6.97255 23.1588 7.22092 23.4598M4.46913 15.2599C4.74448 14.9684 4.92711 14.6066 5.01252 14.2227M7.22092 23.4598C7.46761 23.7617 7.63563 24.126 7.70081 24.5205M7.22092 23.4598C7.46986 23.7617 7.63844 24.125 7.70081 24.5205M7.22092 23.4598L7.21699 23.4555C7.20069 23.4358 7.18327 23.4152 7.16641 23.396M7.70081 24.5205L8.19275 27.5423C8.24602 27.8695 8.45797 28.149 8.75865 28.2886L11.2439 29.4425C11.535 29.5776 11.8733 29.5649 12.1533 29.4082L14.8537 27.8974M14.8537 27.8974C15.2071 27.6989 15.6016 27.5993 15.9961 27.5989M14.8537 27.8974C14.9936 27.8178 15.1402 27.7543 15.2908 27.7066C15.5195 27.6341 15.7578 27.5984 15.9961 27.5989M15.9961 27.5989C16.2012 27.5993 16.4063 27.6264 16.6063 27.68C16.7923 27.7298 16.9733 27.8024 17.1447 27.8974M15.9961 27.5989C16.3922 27.5983 16.789 27.6979 17.1447 27.8974M17.1447 27.8974L19.9652 29.4243C20.2465 29.5766 20.5836 29.5851 20.8722 29.4473L23.3452 28.2661C23.6448 28.123 23.8539 27.8406 23.9032 27.5122L24.3447 24.5706M24.3447 24.5706C24.4071 24.1739 24.5729 23.8069 24.819 23.5024M24.3447 24.5706C24.4048 24.1731 24.5717 23.8065 24.819 23.5024M24.819 23.5024C25.0634 23.201 25.3877 22.9609 25.7653 22.8124M24.819 23.5024C25.0629 23.1998 25.386 22.9591 25.7653 22.8124M25.7653 22.8124L28.68 21.6701C28.988 21.5494 29.2163 21.2842 29.29 20.9617L29.8826 18.3673C29.9561 18.0457 29.8662 17.7085 29.6424 17.4661L27.5297 15.1786M27.5297 15.1786C27.251 14.8837 27.0566 14.5314 26.9622 14.157M27.5297 15.1786C27.3988 15.0409 27.2864 14.8903 27.1948 14.7306C27.0903 14.5493 27.0122 14.3563 26.9622 14.157M26.9622 14.157C26.8695 13.7852 26.8751 13.3913 26.9925 13.01L27.9083 10.0746C28.0087 9.7528 27.9402 9.40208 27.7261 9.14169L26.0189 7.06523C25.8126 6.81434 25.4974 6.67926 25.1734 6.70299L22.0368 6.93274M22.0368 6.93274C21.6311 6.96139 21.2322 6.8841 20.877 6.71785M22.0368 6.93274C21.6306 6.96304 21.2322 6.88513 20.877 6.71785M20.877 6.71785C20.5196 6.54946 20.2061 6.29053 19.9729 5.96043M20.877 6.71785C20.5191 6.55008 20.2049 6.29184 19.9729 5.96043M5.01252 14.2227L5.01365 14.2168M20.5146 16.3475C20.5146 18.8341 18.4534 20.8498 15.9112 20.8498C13.369 20.8498 11.3079 18.8341 11.3079 16.3475C11.3079 13.8609 13.369 11.8451 15.9112 11.8451C18.4534 11.8451 20.5146 13.8609 20.5146 16.3475Z" stroke="current" stroke-width="2"/>
</svg>
